<?xml version="1.0" encoding="UTF-8" standalone="no"?>
<!DOCTYPE svg PUBLIC "-//W3C//DTD SVG 1.1//EN" "http://www.w3.org/Graphics/SVG/1.1/DTD/svg11.dtd">
<svg version="1.1" xmlns="http://www.w3.org/2000/svg" xmlns:xlink="http://www.w3.org/1999/xlink" preserveAspectRatio="xMidYMid meet" viewBox="0 0 640 640" width="900" height="900"><defs><path d="M312.23 548.92C312.4 548.25 312.49 547.88 312.51 547.81C312.57 547.57 318.87 523.27 337.87 510.08C356.87 496.89 381.83 499.48 382.08 499.51C382.16 499.52 382.54 499.56 383.22 499.63C383.05 500.3 382.96 500.67 382.94 500.74C382.88 500.99 376.58 525.28 357.58 538.47C338.58 551.67 313.62 549.07 313.37 549.05C313.22 549.03 312.84 548.99 312.23 548.92ZM314.78 547.15C319.87 547.48 340.4 547.98 356.44 536.83C372.49 525.69 379.2 506.29 380.68 501.4C375.58 501.08 355.06 500.58 339.01 511.72C322.94 522.87 316.25 542.27 314.78 547.15Z" id="a9esVHGz0"></path><path d="M313.75 548.75C313.75 548.75 306.71 525 316.29 504.06C325.87 483.12 348.45 472.93 348.45 472.93C348.45 472.93 355.49 496.68 345.91 517.62C336.32 538.55 320.18 542.52 313.75 548.75Z" id="d28eWJrStR"></path><path d="M108.93 443.97C116.36 431.44 126.79 420.62 139.59 413.54C154.35 405.38 171.39 402.71 188.06 402.34C224.31 401.54 260.31 410.3 296.56 405.77C312.83 403.74 329.05 399.18 343 390.35C355.05 382.71 365.51 372.02 371.69 359.06C377.7 346.68 379.07 332.56 375.52 319.27C372.1 306.69 364.03 294.94 352.24 288.92C341.53 283.45 328.38 283.3 317.3 287.83C305.4 292.69 296.82 302.76 295 315.64C292.72 331.71 299.96 347.61 308.01 361.07C315.77 374.01 325.17 386.17 336.59 396.09C347.65 405.71 360.7 413.29 375.05 416.65C388.66 419.85 403.34 419.57 416.58 414.85C430.23 409.97 441.61 400.23 448.55 387.5C456.29 373.49 459 357.3 458.73 341.44C458.42 322.71 454.47 304.17 450.94 285.84C445.57 257.95 440.55 235.79 439.4 230.23C436.39 216.72 433.82 205.95 433.2 203.25C432.75 201.38 429.86 202.17 430.31 204.05C438.78 239.79 446.7 275.81 452.72 312.06C455.57 329.26 457.36 347.11 453.78 364.35C450.76 378.89 443.99 392.98 432.41 402.6C410.31 420.95 377.34 418.63 353.69 404.78C340.93 397.31 330.11 386.85 321.15 375.16C311.89 363.07 303.26 349.25 299.35 334.41C297.33 326.75 296.76 318.58 299.09 310.92C300.89 305.02 304.42 299.81 309.22 295.95C318.22 288.65 330.93 286.03 342.17 288.49C354.84 291.26 364.64 300.79 369.89 312.38C375.35 324.63 375.99 338.49 371.68 351.19C367.14 364.59 357.74 376.05 346.43 384.38C333.56 393.86 318.23 399.24 302.56 401.89C267.42 407.84 232.12 400.06 196.92 399.35C180.88 399.02 164.43 400.26 149.27 405.87C135.76 410.9 123.83 419.43 114.7 430.58C94.66 454.88 89.12 487.13 93.86 517.71C95.17 526 97.14 534.17 99.76 542.15C100.36 543.97 103.25 543.19 102.65 541.35C92.32 509.57 91.47 473.45 108.93 443.97Z" id="e1EFvuEhjK"></path><path d="M109.59 534.12C109.59 534.12 109.59 534.12 109.59 534.12C109.59 543.11 109.59 548.1 109.59 549.1C109.59 549.1 109.59 549.1 109.59 549.1C98.2 549.1 91.88 549.1 90.62 549.1C90.62 549.1 90.62 549.1 90.62 549.1C90.62 540.11 90.62 535.12 90.62 534.12C90.62 534.12 90.62 534.12 90.62 534.12C102 534.12 108.32 534.12 109.59 534.12Z" id="c2yr538n4S"></path><path d="M1.65 550.1C1.1 550.1 0.65 549.65 0.65 549.1C0.65 548.55 1.1 548.1 1.65 548.1C39.69 548.1 344.01 548.1 382.05 548.1C382.6 548.1 383.05 548.55 383.05 549.1C383.05 549.65 382.6 550.1 382.05 550.1C305.97 550.1 39.69 550.1 1.65 550.1Z" id="e7typwm1o"></path><path d="M114.47 611C113.92 611 113.47 610.55 113.47 610C113.47 609.45 113.92 609 114.47 609C126.15 609 219.61 609 231.29 609C231.84 609 232.29 609.45 232.29 610C232.29 610.55 231.84 611 231.29 611C207.92 611 126.15 611 114.47 611Z" id="a57LQqOjM"></path><path d="M118.44 317.69C117.81 317.2 117.12 316.76 116.41 316.38C116.89 313.17 119.3 297.09 123.64 268.14L100.65 278.8C98.64 305.31 97.52 320.04 97.3 322.98C94.21 329.95 97.36 338.1 104.33 341.19C110.17 343.77 117.01 342.02 120.88 336.95C125.53 330.96 124.44 322.34 118.44 317.69Z" id="b1VP1Yx53Z"></path><path d="M173.87 593.14L165.99 529.29L190.42 529.29L190.42 593.14L190.42 593.14L173.87 593.14Z" id="g4rbVpJIVd"></path><path d="M194.64 609.19L141.27 609.19C141.27 608.78 141.27 608.56 141.27 608.51C141.27 597.04 150.57 587.74 162.04 587.74C162.04 587.74 162.04 587.74 162.04 587.74L194.64 587.74L194.64 609.19Z" id="f183N13EaU"></path><path d="M234.13 561.02L203.81 504.22L226.62 495.44L249.59 555.06L249.59 555.06L234.13 561.02Z" id="b5nODvxAea"></path><path d="M259.3 568.53L209.46 587.73C209.31 587.35 209.23 587.14 209.21 587.1C205.09 576.38 210.43 564.35 221.14 560.22C221.14 560.22 221.14 560.22 221.14 560.22L251.59 548.5L259.3 568.53Z" id="aOaKhxTW"></path><path d="M137.63 326.45L212.47 554.09L252.43 541.89L223.88 457.93L195.03 333.43L194.41 289.06L142.31 299.46L142.31 299.46L137.63 326.45Z" id="atwtNffFt"></path><path d="M172.25 488.86L170.08 471.47L194.41 418.07L191.6 291.52L244.66 299.46L223.88 462.47L196.82 558.2L191.39 578.85L158.77 581.03L158.77 581.03L172.25 488.86Z" id="a1hRYNojUR"></path><path d="M166.93 19.53C150.12 19.53 136.49 33.16 136.49 49.97C136.49 66.78 150.12 80.41 166.93 80.41C183.74 80.41 197.37 66.78 197.37 49.97C197.37 33.16 183.74 19.53 166.93 19.53Z" id="f1AXRKt0a0"></path><path d="M175.63 1.26C175.19 1.61 173.02 3.35 169.1 6.48C170.62 2.83 171.47 0.8 171.64 0.4C169.5 0.07 167.35 -0.06 165.19 0.02C164.8 0.53 162.84 3.04 159.32 7.57C160.77 3.2 161.58 0.77 161.75 0.28C151.45 1.56 142.15 7.09 136.11 15.53C128.64 26.31 129.14 41.28 136.49 52.14C138.51 45.94 139.19 40.13 141.21 33.93C142.8 34.15 144.4 34.15 145.99 33.95C146.15 33.57 146.97 31.66 148.45 28.23C148.86 31.52 149.09 33.35 149.13 33.71C156.74 33.05 168.02 31.59 175.24 30.26C175.19 29.98 174.96 28.58 174.54 26.05C177.05 28.15 178.45 29.32 178.73 29.55C180.94 29.04 182.25 28.58 182.15 28.23C187.51 36.87 192.83 42.4 198.19 51.05C200.23 38.85 203.82 28.71 196.97 17.58C192.11 9.69 184.51 3.88 175.63 1.26Z" id="a2IXB3dNO"></path><path d="M226.06 88.26C226.06 88.26 168.1 83.1 142.72 104.16C142.2 116.75 139.58 179.67 134.86 292.94C137.46 301.78 138.91 306.69 139.2 307.67C139.2 307.67 159.94 311.81 185.12 304.67C185.12 304.67 244.66 307.67 244.66 307.67C244.9 299.97 246.13 261.43 248.35 192.08C236.46 136.71 229.03 102.1 226.06 88.26Z" id="a32Mn6vwko"></path><path d="M140.72 296.44L158.81 112.79C156.77 103.29 155.63 98.01 155.4 96.95C155.4 96.95 120.5 106.81 107.78 125.53C109.31 136.14 116.96 189.18 130.74 284.67L130.74 299.46L140.72 296.44Z" id="cfB2RW8A8"></path><path d="M190.71 89.53C190.71 89.53 225.74 79.65 242.48 91.83C243.41 101.95 250.83 182.84 251.75 192.95C251.75 192.95 270.35 250.77 256.09 264.36C256.4 265.72 258.91 276.6 259.22 277.96C259.22 277.96 240.19 279.08 236.12 279.61C232.04 280.13 221.83 284.24 221.83 284.24C215.6 245.3 173.29 119.61 190.71 89.53Z" id="m9FDiOoyKF"></path><path d="M107.78 125.53C107.78 125.53 103.89 127.64 104.37 137.03C104.37 137.03 93.14 284.01 99 292.94C98.77 293.72 97.64 297.6 95.61 304.59L119.53 311.12C120.38 304.12 120.85 300.24 120.95 299.46C120.95 299.46 130.63 269.34 131.87 261.69C133.11 254.04 118.6 124.44 118.6 124.44C116.44 124.65 108.86 125.42 107.78 125.53Z" id="kuGf4t6WM"></path><path d="M250.77 267.93C251.58 267.91 252.39 267.96 253.19 268.09C254.71 265.21 262.34 250.85 276.07 225L288.22 247.26C274.06 269.76 266.19 282.26 264.62 284.76C262.95 292.19 255.57 296.87 248.13 295.21C241.91 293.81 237.45 288.33 237.35 281.95C237.19 274.37 243.19 268.09 250.77 267.93Z" id="cb6RLDA5x"></path><path d="M241.39 91.83C241.39 91.83 262.38 103.24 264.06 114.5C264.06 114.5 307.27 198.66 307.27 198.66C307.27 198.66 292.42 263.56 279.08 267.5C278.6 268.03 276.18 270.7 271.83 275.5L251.8 262.59C255.7 258.7 257.86 256.53 258.29 256.1C258.29 256.1 258.12 221.77 264.11 215.62C264.11 215.62 247.26 172.51 239.65 168.16C232.04 163.81 228.51 97.18 228.51 97.18C231.08 96.11 240.11 92.37 241.39 91.83Z" id="ahpguqQDn"></path></defs><g><g><g><use xlink:href="#a9esVHGz0" opacity="1" fill="#f1f1f1" fill-opacity="1"></use><g><use xlink:href="#a9esVHGz0" opacity="1" fill-opacity="0" stroke="#000000" stroke-width="1" stroke-opacity="0"></use></g></g><g><use xlink:href="#d28eWJrStR" opacity="1" fill="#f1f1f1" fill-opacity="1"></use><g><use xlink:href="#d28eWJrStR" opacity="1" fill-opacity="0" stroke="#000000" stroke-width="1" stroke-opacity="0"></use></g></g><g><use xlink:href="#e1EFvuEhjK" opacity="1" fill="#e5e5e5" fill-opacity="1"></use><g><use xlink:href="#e1EFvuEhjK" opacity="1" fill-opacity="0" stroke="#000000" stroke-width="1" stroke-opacity="0"></use></g></g><g><use xlink:href="#c2yr538n4S" opacity="1" fill="#ffe900" fill-opacity="1"></use><g><use xlink:href="#c2yr538n4S" opacity="1" fill-opacity="0" stroke="#000000" stroke-width="1" stroke-opacity="0"></use></g></g><g><use xlink:href="#e7typwm1o" opacity="1" fill="#cbcbcb" fill-opacity="1"></use><g><use xlink:href="#e7typwm1o" opacity="1" fill-opacity="0" stroke="#000000" stroke-width="1" stroke-opacity="0"></use></g></g><g><use xlink:href="#a57LQqOjM" opacity="1" fill="#cbcbcb" fill-opacity="1"></use><g><use xlink:href="#a57LQqOjM" opacity="1" fill-opacity="0" stroke="#000000" stroke-width="1" stroke-opacity="0"></use></g></g><g><use xlink:href="#b1VP1Yx53Z" opacity="1" fill="#ffb7b7" fill-opacity="1"></use><g><use xlink:href="#b1VP1Yx53Z" opacity="1" fill-opacity="0" stroke="#000000" stroke-width="1" stroke-opacity="0"></use></g></g><g><use xlink:href="#g4rbVpJIVd" opacity="1" fill="#ffb7b7" fill-opacity="1"></use><g><use xlink:href="#g4rbVpJIVd" opacity="1" fill-opacity="0" stroke="#000000" stroke-width="1" stroke-opacity="0"></use></g></g><g><use xlink:href="#f183N13EaU" opacity="1" fill="#2f2e41" fill-opacity="1"></use><g><use xlink:href="#f183N13EaU" opacity="1" fill-opacity="0" stroke="#000000" stroke-width="1" stroke-opacity="0"></use></g></g><g><use xlink:href="#b5nODvxAea" opacity="1" fill="#ffb7b7" fill-opacity="1"></use><g><use xlink:href="#b5nODvxAea" opacity="1" fill-opacity="0" stroke="#000000" stroke-width="1" stroke-opacity="0"></use></g></g><g><use xlink:href="#aOaKhxTW" opacity="1" fill="#2f2e41" fill-opacity="1"></use><g><use xlink:href="#aOaKhxTW" opacity="1" fill-opacity="0" stroke="#000000" stroke-width="1" stroke-opacity="0"></use></g></g><g><use xlink:href="#atwtNffFt" opacity="1" fill="#2f2e41" fill-opacity="1"></use><g><use xlink:href="#atwtNffFt" opacity="1" fill-opacity="0" stroke="#000000" stroke-width="1" stroke-opacity="0"></use></g></g><g><use xlink:href="#a1hRYNojUR" opacity="1" fill="#2f2e41" fill-opacity="1"></use><g><use xlink:href="#a1hRYNojUR" opacity="1" fill-opacity="0" stroke="#000000" stroke-width="1" stroke-opacity="0"></use></g></g><g><use xlink:href="#f1AXRKt0a0" opacity="1" fill="#ffb8b8" fill-opacity="1"></use><g><use xlink:href="#f1AXRKt0a0" opacity="1" fill-opacity="0" stroke="#000000" stroke-width="1" stroke-opacity="0"></use></g></g><g><use xlink:href="#a2IXB3dNO" opacity="1" fill="#2f2e41" fill-opacity="1"></use><g><use xlink:href="#a2IXB3dNO" opacity="1" fill-opacity="0" stroke="#000000" stroke-width="1" stroke-opacity="0"></use></g></g><g><use xlink:href="#a32Mn6vwko" opacity="1" fill="#cbcbcb" fill-opacity="1"></use><g><use xlink:href="#a32Mn6vwko" opacity="1" fill-opacity="0" stroke="#000000" stroke-width="1" stroke-opacity="0"></use></g></g><g><use xlink:href="#cfB2RW8A8" opacity="1" fill="#3f3d56" fill-opacity="1"></use><g><use xlink:href="#cfB2RW8A8" opacity="1" fill-opacity="0" stroke="#000000" stroke-width="1" stroke-opacity="0"></use></g></g><g><use xlink:href="#m9FDiOoyKF" opacity="1" fill="#3f3d56" fill-opacity="1"></use><g><use xlink:href="#m9FDiOoyKF" opacity="1" fill-opacity="0" stroke="#000000" stroke-width="1" stroke-opacity="0"></use></g></g><g><use xlink:href="#kuGf4t6WM" opacity="1" fill="#3f3d56" fill-opacity="1"></use><g><use xlink:href="#kuGf4t6WM" opacity="1" fill-opacity="0" stroke="#000000" stroke-width="1" stroke-opacity="0"></use></g></g><g><use xlink:href="#cb6RLDA5x" opacity="1" fill="#ffb7b7" fill-opacity="1"></use><g><use xlink:href="#cb6RLDA5x" opacity="1" fill-opacity="0" stroke="#000000" stroke-width="1" stroke-opacity="0"></use></g></g><g><use xlink:href="#ahpguqQDn" opacity="1" fill="#3f3d56" fill-opacity="1"></use><g><use xlink:href="#ahpguqQDn" opacity="1" fill-opacity="0" stroke="#000000" stroke-width="1" stroke-opacity="0"></use></g></g></g></g></svg>